# xmcd CD database file
#
# Track frame offsets:
#	150
#	40909
#	70356
#	95212
#	126403
#	161610
#	185339
#
# Disc length: 2828 seconds
#
# Revision: 0
# Processed by: cddbd v1.5.1PL0 Copyright (c) Steve Scherf et al.
# Submitted via: CDex 1.51
#
DISCID=640b0a07
DTITLE=Juergen Seefelder - Cruisin'
DYEAR=2004
DGENRE=Jazz
TTITLE0=A Bossa Da Zezé
TTITLE1=Blues For Nathan
TTITLE2=Beleza Negra
TTITLE3=Cruisi'
TTITLE4=The beauty Of The Beast
TTITLE5=Worschtkind
TTITLE6=Return Of The Blue
EXTD=YEAR: 2004
EXTT0=
EXTT1=
EXTT2=
EXTT3=
EXTT4=
EXTT5=
EXTT6=
PLAYORDER=
